<svg width="64" height="16" viewBox="0 0 64 16" fill="none" xmlns="http://www.w3.org/2000/svg">
<g clip-path="url(#clip0)">
<path fill-rule="evenodd" clip-rule="evenodd" d="M33.6788 6.34459C33.6788 5.76243 33.6086 5.28243 33.4695 4.90336C33.3535 4.56025 33.1568 4.25002 32.896 3.99874C32.6499 3.77353 32.3517 3.61284 32.0283 3.53105C31.6761 3.44055 31.3137 3.39587 30.9501 3.39812C30.6609 3.39812 30.4135 3.40305 30.2068 3.41289C30 3.42397 29.8129 3.43382 29.6492 3.44489V11.5384C29.8141 11.5483 30 11.5594 30.2068 11.5692C30.4135 11.5803 30.6621 11.5852 30.9501 11.5852C31.3317 11.5852 31.6923 11.5409 32.0283 11.4523C32.3643 11.3637 32.6535 11.2086 32.896 10.9846C33.1384 10.7618 33.3304 10.459 33.4695 10.08C33.6086 9.70089 33.6788 9.21966 33.6788 8.63751V6.34459ZM35.8326 8.62766C35.8326 10.1735 35.4117 11.3538 34.5674 12.1686C33.7243 12.9834 32.5206 13.3907 30.9575 13.3907C30.1096 13.3898 29.2623 13.3479 28.4184 13.2652C28.2441 13.2521 28.0704 13.2315 27.8978 13.2037C27.7838 13.1929 27.677 13.1434 27.5951 13.0634C27.5274 12.9907 27.4941 12.8763 27.4941 12.7212V2.24612C27.4941 2.09105 27.5274 1.97536 27.5951 1.90397C27.6772 1.82422 27.7839 1.77474 27.8978 1.76366C28.0705 1.7361 28.2441 1.71557 28.4184 1.70212C28.6511 1.6812 28.9108 1.66028 29.1938 1.63936C29.7807 1.59641 30.3691 1.57588 30.9575 1.57782C32.5206 1.57782 33.7243 1.98397 34.5674 2.79874C35.4117 3.61351 35.8338 4.79259 35.8338 6.33966V8.62766H35.8326ZM42.5686 8.06766C42.5686 7.45474 42.4172 6.98335 42.1157 6.65105C41.8154 6.31874 41.4203 6.15259 40.9329 6.15259C40.4443 6.15259 40.0455 6.31628 39.7329 6.64366C39.4215 6.96982 39.2664 7.44366 39.2664 8.06766V8.1292H42.5686V8.06766ZM44.6141 9.20366C44.6141 9.46212 44.5108 9.59259 44.304 9.59259H39.2517V9.63936C39.2517 9.86705 39.2763 10.0984 39.3292 10.3323C39.3809 10.5661 39.4769 10.7778 39.616 10.9698C39.7551 11.1618 39.9458 11.3181 40.1895 11.4375C40.432 11.5569 40.7397 11.616 41.1114 11.616C41.68 11.616 42.2141 11.5975 42.7151 11.5618C43.2172 11.5249 43.632 11.4917 43.9631 11.4609H44.0098C44.0811 11.4576 44.1516 11.4765 44.2117 11.515C44.2634 11.552 44.2892 11.611 44.2892 11.6935V12.7212C44.2952 12.8178 44.2766 12.9144 44.2351 13.0018C44.1981 13.0634 44.1083 13.1052 43.9643 13.1249C43.5165 13.2208 43.0631 13.2886 42.6068 13.328C42.3852 13.3489 42.1428 13.3649 41.8781 13.3747C41.571 13.3859 41.2637 13.3912 40.9563 13.3907C40.5624 13.3907 40.1477 13.3304 39.7095 13.211C39.2666 13.0898 38.8538 12.8777 38.4972 12.5883C38.128 12.2929 37.8228 11.8941 37.5815 11.3907C37.3415 10.8861 37.2209 10.2523 37.2209 9.48305V8.33228C37.2209 7.7292 37.3034 7.1852 37.4671 6.69782C37.6168 6.23661 37.8621 5.81218 38.1871 5.45228C38.5021 5.11012 38.8911 4.84551 39.3551 4.65843C39.8582 4.46477 40.3939 4.36991 40.9329 4.37905C41.5311 4.37905 42.0591 4.47505 42.5181 4.66582C42.9772 4.85905 43.3612 5.13105 43.6714 5.48305C43.9791 5.83628 44.2154 6.25351 44.3741 6.73597C44.5393 7.25175 44.6203 7.79074 44.6141 8.33228V9.20366V9.20366ZM51.2714 8.06766C51.2714 7.45474 51.1212 6.98335 50.8197 6.65105C50.5181 6.31874 50.1243 6.15259 49.6357 6.15259C49.1483 6.15259 48.7495 6.31628 48.4369 6.64366C48.1255 6.96982 47.9692 7.44366 47.9692 8.06766V8.1292H51.2714V8.06766ZM53.3181 9.20366C53.3181 9.46212 53.2148 9.59259 53.008 9.59259H47.9544V9.63936C47.9544 9.86705 47.9791 10.0984 48.032 10.3323C48.0837 10.5661 48.1797 10.7778 48.3188 10.9698C48.4578 11.1618 48.6498 11.3181 48.8923 11.4375C49.1348 11.5569 49.4424 11.616 49.8154 11.616C50.3815 11.616 50.9169 11.5975 51.4191 11.5618C51.92 11.5249 52.336 11.4917 52.6671 11.4609H52.7126C52.7839 11.4576 52.8544 11.4765 52.9144 11.515C52.9661 11.552 52.992 11.611 52.992 11.6935V12.7212C52.998 12.8178 52.9794 12.9144 52.9378 13.0018C52.9009 13.0634 52.8111 13.1052 52.6671 13.1249C52.2196 13.2207 51.7666 13.2886 51.3108 13.328C51.088 13.3489 50.8455 13.3649 50.5821 13.3747C50.3175 13.3846 50.0111 13.3907 49.6591 13.3907C49.2664 13.3907 48.8504 13.3304 48.4123 13.211C47.9694 13.0898 47.5565 12.8777 47.2 12.5883C46.8308 12.2929 46.5268 11.8941 46.2855 11.3907C46.0443 10.8861 45.9237 10.2523 45.9237 9.48305V8.33228C45.9237 7.7292 46.0061 7.1852 46.1711 6.69782C46.3211 6.2365 46.5669 5.81207 46.8923 5.45228C47.2061 5.11012 47.5951 4.84551 48.0591 4.65843C48.5622 4.46477 49.0979 4.36991 49.6369 4.37905C50.2351 4.37905 50.7643 4.47505 51.2221 4.66582C51.6812 4.85905 52.0652 5.13105 52.3754 5.48305C52.6843 5.83628 52.9194 6.25351 53.0794 6.73597C53.2394 7.21843 53.3194 7.75135 53.3194 8.33228V9.20366H53.3181ZM54.7741 1.42151H56.8209V13.2652H54.7741V1.42151Z" fill="#363D4D"/>
<path fill-rule="evenodd" clip-rule="evenodd" d="M56.7348 13.1643C56.7099 13.196 56.6782 13.2216 56.6419 13.2391C56.6056 13.2566 56.5658 13.2655 56.5256 13.2652H55.0856C55.0441 13.2652 55.0031 13.2562 54.9655 13.2388C54.9279 13.2214 54.8945 13.1959 54.8677 13.1643C54.8085 13.1042 54.7749 13.0235 54.7742 12.9391V1.73293C54.7742 1.64924 54.8049 1.57662 54.8677 1.51508C54.8954 1.48544 54.929 1.46184 54.9663 1.44575C55.0035 1.42965 55.0437 1.42142 55.0843 1.42155H56.5256C56.5651 1.42089 56.6044 1.42892 56.6406 1.44509C56.6767 1.46125 56.7089 1.48514 56.7348 1.51508C56.7926 1.57662 56.8209 1.65047 56.8209 1.73293V12.9391C56.8206 13.0221 56.79 13.1022 56.7348 13.1643Z" fill="#363D4D"/>
<path fill-rule="evenodd" clip-rule="evenodd" d="M11.8941 5.15692C11.6279 5.4252 11.4792 5.78822 11.4806 6.16615C11.4806 6.94769 12.1046 7.58277 12.875 7.58277C13.6443 7.58277 14.2683 6.94769 14.2683 6.16492C14.2683 5.77354 14.1132 5.41908 13.8621 5.16308V0H6.15381V16H8.12058V2.00123H11.8941V5.15692Z" fill="#00D4D0"/>
<path fill-rule="evenodd" clip-rule="evenodd" d="M18.6425 2.34218C17.8096 1.49747 16.797 0.851315 15.68 0.451721V2.61788C16.2585 2.90711 16.7926 3.29234 17.2517 3.75757C18.3643 4.88971 18.9853 6.41515 18.9797 8.00249C18.9772 11.3083 16.3323 13.9988 13.0806 13.9988H11.9052V10.8234C12.1268 10.5723 12.2634 10.2413 12.2634 9.87572C12.2634 9.09295 11.6394 8.45788 10.8702 8.45788C10.0997 8.45788 9.47571 9.09295 9.47571 9.87695C9.47571 10.2954 9.6554 10.6696 9.93848 10.9293V16H13.0806C17.4154 16 20.9452 12.4123 20.9465 7.99634C20.9527 5.88182 20.1248 3.85015 18.6425 2.34218V2.34218Z" fill="#00D4D0"/>
</g>
<defs>
<clipPath id="clip0">
<rect width="64" height="16" fill="white"/>
</clipPath>
</defs>
</svg>
